<?xml version="1.0" standalone="no"?>
<!DOCTYPE svg PUBLIC "-//W3C//DTD SVG 20010904//EN"
 "http://www.w3.org/TR/2001/REC-SVG-20010904/DTD/svg10.dtd">
<svg version="1.0" xmlns="http://www.w3.org/2000/svg"
     width="78.000000pt" height="86.000000pt" viewBox="0 0 78.000000 86.000000"
     preserveAspectRatio="xMidYMid meet">

  <!-- Top-Left Pieces -->
  <g transform="translate(0.000000,86.000000) scale(0.100000,-0.100000)"
     fill="#9F211A"
     stroke="none">
    <path d="M318 820 c-218 -37 -310 -168 -296 -423 6 -103 41 -209 71 -215 18 -4
             257 232 257 254 0 6 -9 19 -20 29 -46 42 -80 107 -80 155 0 39 5 52
             32 79 18 18 44 37 57 43 37 13 105 -16 163 -70 l47 -44 27 21 c15 12
             38 36 50 53 22 29 22 33 8 49 -23 26 -102 57 -175 68 -71 12 -74 12
             -141 1z"/>
    <path d="M420 663 c-25 -10 -64 -43 -77 -66 -20 -35 -15 -64 16 -99 l29 -32 66
             64 c36 35 66 69 66 76 0 15 -57 64 -73 63 -7 0 -19 -3 -27 -6z"/>
  </g>

  <!-- Bottom-Right Piece -->
  <g transform="translate(0.000000,86.000000) scale(0.100000,-0.100000)"
   fill="#C0AC54"
   stroke="none">
  <path d="M532 577 c-67 -68 -122 -130 -122 -138 0 -8 27 -41 60 -74 32 -32 57
           -62 54 -67 -8 -13 -55 17 -99 61 -21 23 -44 41 -50 41 -6 0 -66 -56
           -135 -125 -142 -143 -142 -141 -45 -189 86 -44 199 -48 327 -12 106 31
           156 69 190 146 26 59 48 163 47 225 -1 115 -49 255 -87 255 -10 0 -73
           -56 -140 -123z"/>
  </g>
</svg>
